<svg width="109" height="43" viewBox="0 0 109 43" fill="none" xmlns="http://www.w3.org/2000/svg">
<path d="M49.4214 18.5996C49.4214 18.5104 49.4659 18.4659 49.5551 18.4659H52.0155C52.1047 18.4659 52.1492 18.5104 52.1492 18.5996V27.8663C52.1492 27.9554 52.1047 28 52.0155 28H49.5551C49.4659 28 49.4214 27.9554 49.4214 27.8663V24.8175C49.4214 24.7284 49.3768 24.6838 49.2877 24.6838H46.0249C45.9358 24.6838 45.8912 24.7284 45.8912 24.8175V27.8663C45.8912 27.9554 45.8466 28 45.7575 28H43.3104C43.2213 28 43.1767 27.9554 43.1767 27.8663V18.5996C43.1767 18.5104 43.2213 18.4659 43.3104 18.4659H45.7575C45.8466 18.4659 45.8912 18.5104 45.8912 18.5996V22.1565C45.8912 22.2456 45.9358 22.2902 46.0249 22.2902H49.2877C49.3768 22.2902 49.4214 22.2456 49.4214 22.1565V18.5996ZM60.2326 18.4258C61.1419 18.4258 61.9665 18.6352 62.7064 19.0542C63.4463 19.4732 64.0302 20.0482 64.4581 20.7792C64.886 21.5102 65.1 22.3259 65.1 23.2262C65.1 24.1266 64.886 24.9468 64.4581 25.6867C64.0302 26.4177 63.4463 26.9927 62.7064 27.4116C61.9665 27.8306 61.1419 28.0401 60.2326 28.0401C59.3233 28.0401 58.4943 27.8306 57.7455 27.4116C57.0055 26.9927 56.4216 26.4177 55.9937 25.6867C55.5658 24.9468 55.3519 24.1266 55.3519 23.2262C55.3519 22.3259 55.5658 21.5102 55.9937 20.7792C56.4216 20.0482 57.0055 19.4732 57.7455 19.0542C58.4943 18.6352 59.3233 18.4258 60.2326 18.4258ZM60.2326 20.8193C59.876 20.8193 59.5328 20.904 59.203 21.0734C58.8731 21.2338 58.6013 21.4968 58.3873 21.8623C58.1734 22.2189 58.0664 22.6735 58.0664 23.2262C58.0664 23.779 58.1734 24.2381 58.3873 24.6036C58.6013 24.9601 58.8731 25.2231 59.203 25.3925C59.5328 25.5619 59.876 25.6466 60.2326 25.6466C60.5803 25.6466 60.919 25.5619 61.2489 25.3925C61.5787 25.2231 61.8462 24.9601 62.0512 24.6036C62.2651 24.2381 62.3721 23.779 62.3721 23.2262C62.3721 22.6735 62.2651 22.2189 62.0512 21.8623C61.8462 21.4968 61.5787 21.2338 61.2489 21.0734C60.928 20.904 60.5892 20.8193 60.2326 20.8193ZM68.3759 28C68.2867 28 68.2422 27.9554 68.2422 27.8663V18.5996C68.2422 18.5104 68.2867 18.4659 68.3759 18.4659H72.6816C73.3145 18.4659 73.8984 18.6174 74.4333 18.9205C74.9771 19.2236 75.4095 19.6381 75.7304 20.1641C76.0513 20.6901 76.2118 21.2695 76.2118 21.9024C76.2118 23.1416 75.6814 24.1043 74.6205 24.7908C74.5849 24.8086 74.5626 24.8353 74.5537 24.871C74.5537 24.9066 74.5626 24.9423 74.5804 24.978L76.1315 27.8395L76.1583 27.9064C76.1583 27.9331 76.1449 27.9554 76.1182 27.9733C76.1003 27.9911 76.0736 28 76.0379 28H73.3903C73.3101 28 73.2566 27.9688 73.2299 27.9064L71.9595 25.4326C71.9328 25.3702 71.8793 25.339 71.7991 25.339H71.0904C71.0012 25.339 70.9566 25.3836 70.9566 25.4727V27.8663C70.9566 27.9554 70.9121 28 70.8229 28H68.3759ZM72.2537 22.9588C72.637 22.9588 72.9357 22.8563 73.1496 22.6513C73.3725 22.4373 73.4839 22.1877 73.4839 21.9024C73.4839 21.6172 73.368 21.372 73.1362 21.167C72.9134 20.9619 72.6504 20.8594 72.3473 20.8594H71.0904C71.0012 20.8594 70.9566 20.904 70.9566 20.9932V22.8251C70.9566 22.9142 71.0012 22.9588 71.0904 22.9588H72.2537ZM87.8364 27.8663C87.8364 27.9554 87.7918 28 87.7027 28H86.1515C86.0891 28 86.0357 27.9733 85.9911 27.9198L82.4074 23.8146C82.3807 23.779 82.3539 23.7611 82.3272 23.7611C82.2737 23.7611 82.247 23.8012 82.247 23.8815V27.8663C82.247 27.9554 82.2024 28 82.1132 28H79.6662C79.5771 28 79.5325 27.9554 79.5325 27.8663V18.5996C79.5325 18.5104 79.5771 18.4659 79.6662 18.4659H81.2173C81.2797 18.4659 81.3332 18.4926 81.3778 18.5461L84.9481 22.6513C84.9748 22.6869 85.0016 22.7047 85.0283 22.7047C85.0818 22.7047 85.1085 22.6646 85.1085 22.5844V18.5996C85.1085 18.5104 85.1531 18.4659 85.2423 18.4659H87.7027C87.7918 18.4659 87.8364 18.5104 87.8364 18.5996V27.8663ZM97.753 25.6064C97.8421 25.6064 97.8867 25.651 97.8867 25.7402V27.8663C97.8867 27.9554 97.8421 28 97.753 28H91.6554C91.5663 28 91.5217 27.9554 91.5217 27.8663V18.5996C91.5217 18.5104 91.5663 18.4659 91.6554 18.4659H97.6193C97.7084 18.4659 97.753 18.5104 97.753 18.5996V20.7257C97.753 20.8149 97.7084 20.8594 97.6193 20.8594H94.3699C94.2808 20.8594 94.2362 20.904 94.2362 20.9932V21.9559C94.2362 22.0451 94.2808 22.0896 94.3699 22.0896H96.7234C96.8125 22.0896 96.8571 22.1342 96.8571 22.2234V24.3495C96.8571 24.4386 96.8125 24.4832 96.7234 24.4832H94.3699C94.2808 24.4832 94.2362 24.5278 94.2362 24.6169V25.4727C94.2362 25.5619 94.2808 25.6064 94.3699 25.6064H97.753ZM108.27 18.4659C108.359 18.4659 108.404 18.5104 108.404 18.5996V20.7257C108.404 20.8149 108.359 20.8594 108.27 20.8594H106.01C105.921 20.8594 105.876 20.904 105.876 20.9932V27.8663C105.876 27.9554 105.832 28 105.743 28H103.282C103.193 28 103.149 27.9554 103.149 27.8663V20.9932C103.149 20.904 103.104 20.8594 103.015 20.8594H100.742C100.652 20.8594 100.608 20.8149 100.608 20.7257V18.5996C100.608 18.5104 100.652 18.4659 100.742 18.4659H108.27Z" fill="white"/>
<path d="M12.351 28.5496C12.1143 28.8977 11.8439 29.2253 11.5421 29.5274C10.2741 30.7961 8.55435 31.5089 6.76117 31.5089C4.96799 31.5089 3.24826 30.7961 1.98029 29.5274C0.71232 28.2586 0 26.5379 0 24.7436V6.76525C0 4.971 0.71232 3.25023 1.98029 1.9815C3.24826 0.712772 4.96799 0 6.76117 0C8.55435 0 10.2741 0.712772 11.5421 1.9815C12.81 3.25023 13.5224 4.971 13.5224 6.76525V24.7436C13.5224 25.0824 13.497 25.4186 13.4472 25.7496L16.6562 21.4704L16.6712 21.4814C16.7789 21.325 16.8933 21.173 17.0142 21.0258C17.5778 20.3393 18.2711 19.7706 19.0544 19.3522C19.8376 18.9338 20.6956 18.6739 21.5793 18.5872C22.463 18.5006 23.3551 18.589 24.2046 18.8473C25.0542 19.1057 25.8446 19.5289 26.5307 20.0929C27.2167 20.6568 27.7851 21.3505 28.2033 22.1343C28.6214 22.918 28.8812 23.7765 28.9678 24.6608C29.0544 25.545 28.966 26.4376 28.7078 27.2877L25.3931 38.2018C24.8717 39.9185 23.69 41.3577 22.1081 42.2028C20.5262 43.0478 18.6736 43.2294 16.9578 42.7077C15.2421 42.1859 13.8038 41.0036 12.9592 39.4207C12.1147 37.8378 11.9332 35.9841 12.4546 34.2673L15.4438 24.4254L12.351 28.5496Z" fill="white"/>
</svg>
